<svg xmlns="http://www.w3.org/2000/svg" width="36.328" height="32.777" viewBox="0 0 36.328 32.777"><defs><style>.a{fill:#fb0d45;}.b{fill:#fefefe;}</style></defs><g transform="translate(0)"><g transform="translate(0 0)"><path class="a" d="M287.105,367.013c-.143.4-.512.563-.871.728-.071.033-.116-.025-.157-.09a4.922,4.922,0,0,0-.835-1.041,6,6,0,0,0-1.886-1.222,5.924,5.924,0,0,0-2.6-.428,4.192,4.192,0,0,0-.858.105,5.634,5.634,0,0,0-3.6,2.477l0,0a5.442,5.442,0,0,0-.785,1.919,5.188,5.188,0,0,0,.085,2.369h-8.289a4.869,4.869,0,0,0,.149-1.06,1.569,1.569,0,0,0,0-.558,5.125,5.125,0,0,0-.41-1.814,5.261,5.261,0,0,0-1.409-1.972,5.658,5.658,0,0,0-2.9-1.389,6.788,6.788,0,0,0-1.463-.08,5.6,5.6,0,0,0-3.6,1.454,7.341,7.341,0,0,0-1.726,2.641,1.119,1.119,0,0,1-1.193.772.81.81,0,0,1-.738-.519,3.733,3.733,0,0,1-.128-1.69,5.1,5.1,0,0,1,.3-1.347,5.338,5.338,0,0,1,1.009-1.562,9.034,9.034,0,0,1,.985-.887h-.706c-.629,0-1.257-.007-1.885,0a1.118,1.118,0,0,1-1.174-1.142c.01-.118-.033-.149-.163-.172a1.738,1.738,0,0,1-1.437-1.634c.011-2.867,0-5.734.006-8.6a1.6,1.6,0,0,1,.851-1.406,1.764,1.764,0,0,1,.978-.24q4.632,0,9.267,0a1.745,1.745,0,0,1,1.759,1.546c.076.914.026,1.827.033,2.741.011,1.463,0,2.928,0,4.39,0,.146.015.2.19.2.489-.014.978-.005,1.468-.005.021-.168-.143-.23-.216-.338a1.945,1.945,0,0,1-.21-1.537c.12-.663.218-1.329.324-1.994.125-.793.277-1.582.411-2.374.143-.844.279-1.689.419-2.533a1.743,1.743,0,0,1,1.831-1.371,2.043,2.043,0,0,1,1.493.856c.437.527.9,1.03,1.354,1.546q.579.664,1.149,1.335a.618.618,0,0,0,.284.18c1.142.386,2.292.752,3.428,1.156a7.1,7.1,0,0,1,1.6.628,1.405,1.405,0,0,1,.575.7c.066.19.174.225.347.236a3.277,3.277,0,0,1,1.265.332,2.12,2.12,0,0,1,.916,1.175,23.536,23.536,0,0,1,.936,2.953,9.759,9.759,0,0,0,.527,1.576,2.99,2.99,0,0,0,.957,1.036c.838.648,1.774,1.165,2.654,1.757a6.85,6.85,0,0,1,1.334,1.085A1.072,1.072,0,0,1,287.105,367.013Z" transform="translate(-250.83 -341.91)"/><path class="a" d="M392.376,729.386a4.169,4.169,0,0,1,3.5-3.828,4.111,4.111,0,0,1,3.181.776,4.206,4.206,0,0,1,1.385,4.9,4.29,4.29,0,0,1-.745,1.227,4.078,4.078,0,0,1-1.406,1.041,4.455,4.455,0,0,1-1.306.355,4.226,4.226,0,0,1-2.051-.281,4.272,4.272,0,0,1-1.021-.614,3.973,3.973,0,0,1-1.234-1.64,3.508,3.508,0,0,1-.3-1.3A3.085,3.085,0,0,1,392.376,729.386Z" transform="translate(-385.702 -701.118)"/><path class="a" d="M583.821,211.082a2.961,2.961,0,0,1-2.8,2.8.751.751,0,0,1-.315,0,2.958,2.958,0,0,1-2.806-3.356,2.95,2.95,0,0,1,.877-1.767,2.913,2.913,0,0,1,1.613-.785,2.977,2.977,0,0,1,3.139,1.609,2.406,2.406,0,0,1,.293,1.184A.848.848,0,0,1,583.821,211.082Z" transform="translate(-562.536 -207.936)"/><circle class="a" cx="4.195" cy="4.195" r="4.195" transform="translate(26.33 24.387)"/></g><path class="b" d="M634.181,475.91c.221.256.419.469.6.7a1.719,1.719,0,0,0,.8.555q2.042.721,4.085,1.439c.295.1.591.2.884.315a1.625,1.625,0,0,0,.949.067c.17-.038.206.039.207.163,0,.315.006.631-.01.946-.064,1.212-.173,2.42-.348,3.621a16.111,16.111,0,0,1-.811,3.524,2.457,2.457,0,0,1-.845,1.261.6.6,0,0,1-.075.049c-.135.064-.3.156-.422.078-.079-.051,0-.229.02-.35.363-2.052.73-4.1,1.084-6.156a2.806,2.806,0,0,0,.059-1.2,1.581,1.581,0,0,0-1.023-1.185c-1.251-.436-2.513-.842-3.771-1.261-.523-.174-1.046-.345-1.569-.52-.057-.019-.139-.016-.121-.121C633.972,477.207,634.073,476.581,634.181,475.91Z" transform="translate(-615.862 -463.157)"/><path class="b" d="M321.287,501.663h-2.723a.552.552,0,0,1-.459-.176.414.414,0,0,1,.225-.676,5.209,5.209,0,0,1,1.069-.033c1.522-.007,3.044,0,4.567,0,.06,0,.12,0,.18,0,.323.023.483.18.476.462a.454.454,0,0,1-.5.421c-.427,0-.856,0-1.283,0Z" transform="translate(-314.978 -487.117)"/><path class="b" d="M660.713,624.053c0-.766,0-1.531,0-2.3,0-.116.026-.164.143-.2a2.153,2.153,0,0,0,.827-.431,1.213,1.213,0,0,0,.435-.686c.014-.065,0-.168.128-.124.079.028.142.041.119.166-.187,1.014-.366,2.027-.543,3.043q-.21,1.2-.412,2.408a1.155,1.155,0,0,0,.032.446c.022.1.014.155-.124.159-.6.016-.6.021-.6-.578Z" transform="translate(-641.592 -600.951)"/><path class="b" d="M345.168,449.238h-2.812c-.327,0-.506-.154-.506-.432s.18-.441.5-.442c1.882,0,3.764,0,5.646,0a.47.47,0,0,1,.47.277.429.429,0,0,1-.1.478.434.434,0,0,1-.368.125Q346.586,449.236,345.168,449.238Z" transform="translate(-337.75 -437.154)"/><path class="b" d="M297.017,553.424h2.811c.272,0,.429.105.483.311a.436.436,0,0,1-.455.563c-.7.005-1.394,0-2.091,0h-3.6a.439.439,0,0,1-.435-.653.444.444,0,0,1,.45-.225Q295.6,553.425,297.017,553.424Z" transform="translate(-291.746 -537.317)"/></g></svg>