<svg xmlns="http://www.w3.org/2000/svg" width="25" height="25" viewBox="0 0 25 25">
  <g id="Group_352" data-name="Group 352" transform="translate(-1095.673 -511.656)">
    <path id="Path_179" data-name="Path 179" d="M1119.466,536.656H1096.88a1.209,1.209,0,0,1-1.208-1.207V512.863a1.209,1.209,0,0,1,1.208-1.207h22.585a1.209,1.209,0,0,1,1.207,1.207v22.585A1.209,1.209,0,0,1,1119.466,536.656Zm-22.514-1.278h22.443V512.935h-22.443Z" transform="translate(0 0)" fill="#056b2f"/>
    <rect id="Rectangle_149" data-name="Rectangle 149" width="23.055" height="23.056" transform="translate(1096.645 512.628)" fill="#89c763"/>
    <path id="Path_180" data-name="Path 180" d="M1129.429,536.71v20.031H1107.67V551.6a2.819,2.819,0,0,1,1.721-2.594v-3.854a2.823,2.823,0,0,1,2.829-2.818h.27v-2.807a2.823,2.823,0,0,1,2.829-2.818Z" transform="translate(-10.376 -21.669)" fill="#3cb54a"/>
    <path id="Path_181" data-name="Path 181" d="M1237.053,589v13.966h-6.1a2.966,2.966,0,0,1,1.565-1.566v-4.047a2.958,2.958,0,0,1,2.959-2.959h.282v-2.947A2.953,2.953,0,0,1,1237.053,589Z" transform="translate(-118 -67.894)" fill="#0e9347"/>
    <g id="Group_347" data-name="Group 347" transform="translate(1098.554 514.573)">
      <path id="Path_182" data-name="Path 182" d="M1118.613,534.055a.809.809,0,0,1-.81.809.81.81,0,0,1-.81-.809.809.809,0,0,1,1.546-.335.228.228,0,0,1,.009.022A.8.8,0,0,1,1118.613,534.055Z" transform="translate(-1116.994 -533.245)" fill="#056b2f"/>
      <path id="Path_183" data-name="Path 183" d="M1255.347,534.055a.81.81,0,0,1-1.619,0,.8.8,0,0,1,.063-.313c0-.007.006-.014.009-.022a.809.809,0,0,1,1.546.335Z" transform="translate(-1236.254 -533.245)" fill="#056b2f"/>
      <path id="Path_184" data-name="Path 184" d="M1118.613,671.855a.778.778,0,0,1-.065.314.74.74,0,0,1-.105.182.809.809,0,1,1-1.135-1.135.782.782,0,0,1,.182-.107.8.8,0,0,1,.314-.063A.809.809,0,0,1,1118.613,671.855Z" transform="translate(-1116.994 -653.427)" fill="#056b2f"/>
      <path id="Path_185" data-name="Path 185" d="M1255.347,671.855a.809.809,0,0,1-1.449.5.731.731,0,0,1-.105-.182.776.776,0,0,1-.065-.314.809.809,0,0,1,.81-.81.8.8,0,0,1,.314.063.781.781,0,0,1,.181.107A.8.8,0,0,1,1255.347,671.855Z" transform="translate(-1236.254 -653.427)" fill="#056b2f"/>
    </g>
    <path id="Path_186" data-name="Path 186" d="M1121.246,538.405h-22a1.177,1.177,0,0,1-1.176-1.176v-22a1.177,1.177,0,0,1,1.176-1.176h22a1.178,1.178,0,0,1,1.176,1.176v22A1.177,1.177,0,0,1,1121.246,538.405Zm-21.931-1.245h21.862V515.3h-21.862Z" transform="translate(-2.073 -2.073)" fill="#0a7c38"/>
    <path id="Path_187" data-name="Path 187" d="M1099.294,514.053a1.224,1.224,0,0,0-1.224,1.224v16.6h0a.648.648,0,0,0,.648-.648V515.277a.576.576,0,0,1,.576-.576h18.15a.648.648,0,0,0,.648-.648h-18.8Z" transform="translate(-2.073 -2.073)" fill="#138943"/>
    <path id="Path_188" data-name="Path 188" d="M1214.714,610.72a.645.645,0,0,0-.19.458v10.443a.576.576,0,0,1-.576.576H1204.8a.648.648,0,0,0-.648.648h9.8a1.224,1.224,0,0,0,1.224-1.224V610.53A.645.645,0,0,0,1214.714,610.72Z" transform="translate(-94.822 -86.515)" fill="#056b2f"/>
    <path id="Path_189" data-name="Path 189" d="M1281.105,571.272a.645.645,0,0,0-.19.458v11.524a1.223,1.223,0,0,0,.648-1.08V571.082A.645.645,0,0,0,1281.105,571.272Z" transform="translate(-161.214 -51.978)" fill="#056b2f"/>
    <path id="Path_190" data-name="Path 190" d="M1168.838,591.042l-4.771,5.415a.759.759,0,0,1-1.138,0l-4.771-5.415a.757.757,0,0,1,.032-1.036l2.679-2.679a.758.758,0,0,1,.535-.222h4.186a.758.758,0,0,1,.535.222l2.679,2.679A.757.757,0,0,1,1168.838,591.042Z" transform="translate(-54.443 -65.877)" fill="#0e9347"/>
    <g id="Group_348" data-name="Group 348" transform="translate(1102.644 519.352)">
      <path id="Path_191" data-name="Path 191" d="M1161.838,576.251l-4.771,5.415a.758.758,0,0,1-1.137,0l-4.771-5.415a.757.757,0,0,1,.032-1.036l2.679-2.679a.758.758,0,0,1,.535-.222h4.186a.758.758,0,0,1,.535.222l2.679,2.679A.757.757,0,0,1,1161.838,576.251Z" transform="translate(-1150.969 -572.314)" fill="#fff"/>
      <path id="Path_192" data-name="Path 192" d="M1197.23,576.251l-4.771,5.415a.751.751,0,0,1-.569.257v-9.609h2.093a.758.758,0,0,1,.535.222l2.679,2.679A.757.757,0,0,1,1197.23,576.251Z" transform="translate(-1186.362 -572.314)" fill="#dddfe1"/>
    </g>
  </g>
</svg>
