<svg xmlns="http://www.w3.org/2000/svg" width="25.5" height="23.008" viewBox="0 0 25.5 23.008"><defs><style>.a{fill:#292929;}</style></defs><g transform="translate(0 0)"><path class="a" d="M21.427,23.008a2.944,2.944,0,1,1,2.945-2.945A2.948,2.948,0,0,1,21.427,23.008ZM7.59,23a3.112,3.112,0,0,1-1.108-.218,3.006,3.006,0,0,1-.717-.431A2.747,2.747,0,0,1,4.9,21.2a2.453,2.453,0,0,1-.214-.915,2.179,2.179,0,0,1,0-.441,2.928,2.928,0,0,1,2.458-2.687,3.263,3.263,0,0,1,.5-.039,2.868,2.868,0,0,1,1.736.584,2.951,2.951,0,0,1,.972,3.437A3,3,0,0,1,9.825,22a2.842,2.842,0,0,1-.987.731,3.121,3.121,0,0,1-.917.249A2.683,2.683,0,0,1,7.59,23Zm9.8-1.994H11.569l.008-.039a3.243,3.243,0,0,0,.1-.7,1.1,1.1,0,0,0,0-.392,3.6,3.6,0,0,0-.288-1.274,3.71,3.71,0,0,0-.989-1.384,3.983,3.983,0,0,0-2.037-.975,4.789,4.789,0,0,0-.774-.063c-.084,0-.169,0-.253.007A3.953,3.953,0,0,0,4.809,17.2,5.225,5.225,0,0,0,3.6,19.056a.783.783,0,0,1-.837.541H2.748a.575.575,0,0,1-.505-.365,2.651,2.651,0,0,1-.089-1.186,3.58,3.58,0,0,1,.214-.945,3.705,3.705,0,0,1,.708-1.1,4.778,4.778,0,0,1,.549-.5l.142-.118H2.476c-.2,0-.373,0-.529,0H1.934a.861.861,0,0,1-.624-.272.691.691,0,0,1-.187-.529c.007-.084-.024-.1-.114-.121A1.212,1.212,0,0,1,0,13.315c0-1.123,0-2.265,0-3.37v0C0,9.07,0,8.168,0,7.278a1.12,1.12,0,0,1,.6-.987,1.258,1.258,0,0,1,.687-.169h6.5A1.221,1.221,0,0,1,9.027,7.208c.037.44.031.887.027,1.32,0,.2,0,.4,0,.6.007.913,0,1.84,0,2.738v.344c0,.1.011.14.12.14h.014c.131,0,.275-.005.451-.005h.579a.194.194,0,0,0-.09-.171.4.4,0,0,1-.062-.066,1.369,1.369,0,0,1-.147-1.079c.065-.36.122-.728.177-1.083l.049-.317c.053-.337.115-.679.174-1.01.038-.216.078-.438.115-.657.066-.391.132-.79.195-1.175v0q.049-.3.1-.6a1.22,1.22,0,0,1,1.2-.965c.028,0,.057,0,.085,0a1.452,1.452,0,0,1,1.048.6c.2.238.406.472.609.7.113.126.229.256.342.386.278.318.549.634.806.937a.437.437,0,0,0,.2.126c.279.094.564.189.839.28.515.17,1.047.347,1.567.532.1.037.212.071.317.1a3.1,3.1,0,0,1,.808.338.983.983,0,0,1,.4.492c.045.13.117.158.244.166a2.286,2.286,0,0,1,.888.233,1.48,1.48,0,0,1,.643.825,12.738,12.738,0,0,1,.548,1.681c.035.129.072.261.109.392l.044.157a5.794,5.794,0,0,0,.326.949,2.087,2.087,0,0,0,.671.727c.375.29.784.546,1.18.794.226.142.459.288.683.439a4.777,4.777,0,0,1,.936.762.753.753,0,0,1,.24.775.958.958,0,0,1-.589.5l-.022.01a.067.067,0,0,1-.028.007c-.034,0-.06-.034-.082-.07a3.472,3.472,0,0,0-.586-.731,4.194,4.194,0,0,0-1.324-.857,4.128,4.128,0,0,0-1.571-.308c-.084,0-.169,0-.252.008a2.986,2.986,0,0,0-.6.074,3.942,3.942,0,0,0-2.526,1.739l0,0a3.8,3.8,0,0,0-.551,1.347,3.664,3.664,0,0,0,.059,1.662Zm-2.928-7.418c-.039,0-.045.036-.049.07,0,.009,0,.017,0,.024a.853.853,0,0,1-.306.481,1.524,1.524,0,0,1-.58.3c-.086.023-.1.061-.1.137,0,.4,0,.813,0,1.209v.014q0,.195,0,.39v1.34a.817.817,0,0,0,.033.339c.034.059.1.07.229.07l.134,0h.027c.043,0,.07-.009.083-.026s.012-.048,0-.085a.806.806,0,0,1-.023-.313c.091-.547.189-1.116.289-1.691.119-.683.248-1.415.381-2.136.015-.082-.024-.1-.074-.113l-.01,0A.113.113,0,0,0,14.459,13.588Zm-1.6-4.635L12.8,9.29c-.056.349-.11.678-.165,1.012-.01.061.027.07.063.078l.022.006.688.228.414.137.777.257c.615.2,1.25.412,1.869.628a1.109,1.109,0,0,1,.718.832,1.7,1.7,0,0,1-.023.739c-.006.034-.012.068-.018.1-.189,1.095-.386,2.207-.577,3.283l0,.01-.182,1.029c0,.022-.01.046-.017.072-.019.072-.038.147,0,.173a.137.137,0,0,0,.076.021.5.5,0,0,0,.2-.064l.024-.012a.4.4,0,0,0,.053-.035,1.73,1.73,0,0,0,.594-.885,11.283,11.283,0,0,0,.569-2.474c.116-.793.2-1.625.245-2.542.011-.216.01-.428.007-.664,0-.06-.011-.121-.091-.121a.252.252,0,0,0-.054.007,1.142,1.142,0,0,1-.666-.047c-.155-.06-.314-.115-.468-.168l-.153-.053-2.867-1.01a1.2,1.2,0,0,1-.559-.39c-.086-.109-.179-.213-.277-.324l-.144-.164ZM1.71,11.3a.313.313,0,0,0-.314.467.343.343,0,0,0,.3.15H5.2l.489,0a.336.336,0,0,0,.273-.123.31.31,0,0,0,.046-.273c-.039-.147-.15-.219-.339-.219H3.364ZM2.7,9.581a1.639,1.639,0,0,0-.35.031.291.291,0,0,0-.158.474.39.39,0,0,0,.322.124H4.428l1.091,0h.6l.3,0a.319.319,0,0,0,.349-.3c.005-.2-.107-.308-.334-.324H4.172l-1.069,0c-.068,0-.137,0-.2,0S2.77,9.581,2.7,9.581Zm3.209-1.1H7.2A.3.3,0,0,0,7.454,8.4a.3.3,0,0,0,.069-.335.33.33,0,0,0-.33-.194c-.794,0-1.6,0-2.378,0H3.23c-.224,0-.352.114-.352.31s.126.3.355.3H5.912Zm6.952-4.3a.526.526,0,0,1-.11-.012,1.983,1.983,0,0,1-1.618-.89,1.978,1.978,0,0,1-.352-1.465A2.062,2.062,0,0,1,11.4.578,2.034,2.034,0,0,1,12.532.027,2.2,2.2,0,0,1,12.873,0a2.048,2.048,0,0,1,1.1.319,2.19,2.19,0,0,1,.763.838,1.69,1.69,0,0,1,.206.831.588.588,0,0,1,0,.22,2.084,2.084,0,0,1-1.967,1.966A.532.532,0,0,1,12.864,4.186Z" transform="translate(0 0)"/></g></svg>