<svg xmlns="http://www.w3.org/2000/svg" width="20.524" height="18.296" viewBox="0 0 20.524 18.296"><defs><style>.a{fill:#c7c7c7;}</style></defs><path class="a" d="M20.524,7.234a.892.892,0,0,0-.906-.877c-.032,0-.064,0-.1,0l-6.255-.148L11.131.636a.912.912,0,0,0-1.739,0L7.255,6.214,1,6.362c-.031,0-.063,0-.1,0A.891.891,0,0,0,0,7.234a.869.869,0,0,0,.414.736L5.4,11.492,3.619,17.018a.844.844,0,0,0-.1.4.892.892,0,0,0,.906.877.919.919,0,0,0,.562-.19l5.278-3.351,5.277,3.351a.919.919,0,0,0,.562.19.892.892,0,0,0,.905-.877.847.847,0,0,0-.1-.4l-1.778-5.525L20.11,7.97a.871.871,0,0,0,.414-.736"/></svg>