<svg xmlns="http://www.w3.org/2000/svg" width="16.827" height="15" viewBox="0 0 16.827 15"><defs><style>.a{fill:#fb0d45;}</style></defs><path class="a" d="M16.827,5.931a.731.731,0,0,0-.743-.719c-.026,0-.052,0-.078,0l-5.128-.121L9.126.521A.748.748,0,0,0,7.7.521L5.948,5.095.82,5.216c-.026,0-.052,0-.078,0A.73.73,0,0,0,0,5.931a.712.712,0,0,0,.34.6L4.424,9.422l-1.457,4.53a.692.692,0,0,0-.083.329A.731.731,0,0,0,3.626,15a.753.753,0,0,0,.461-.156L8.414,12.1l4.327,2.747A.753.753,0,0,0,13.2,15a.731.731,0,0,0,.742-.719.7.7,0,0,0-.083-.329L12.4,9.422l4.084-2.888a.714.714,0,0,0,.34-.6"/></svg>